
        <svg xmlns="http://www.w3.org/2000/svg" xmlns:xlink="http://www.w3.org/1999/xlink" version="1.1" width="3187.5" 
        height="1088.6496409884312" viewBox="0 0 3187.5 1088.6496409884312">
			
			<g transform="scale(9.375) translate(10, 10)">
				<defs id="SvgjsDefs1836"></defs><g id="SvgjsG1837" featureKey="odWo6G-0" transform="matrix(1.1767474235083202,0,0,1.1767474235083202,-8.837375664351185,-10.776651773277532)" fill="#a56cc1"><path xmlns="http://www.w3.org/2000/svg" d="M64.427,49.68c0-7.638-6.192-13.83-13.83-13.83s-13.83,6.192-13.83,13.83c0,7.638,6.192,13.83,13.83,13.83  S64.427,57.318,64.427,49.68z M48.361,41.848c-2.372,1.271-4.085,3.133-5.158,4.575c-0.407,0.547-1.273,0.165-1.14-0.503  c0.817-4.081,3.712-5.111,5.949-5.269C48.695,40.603,48.964,41.525,48.361,41.848z M39.273,36.327l-5.169-4.885  c0.602-1.094,0.975-2.332,0.975-3.669c0-4.235-3.43-7.665-7.666-7.665s-7.672,3.428-7.672,7.665s3.435,7.668,7.672,7.668  c1.493,0,2.875-0.445,4.054-1.183l5.162,4.88C37.408,38.106,38.289,37.161,39.273,36.327z M26.943,23.318  c-1.745,0.935-3.004,2.304-3.793,3.365c-0.299,0.402-0.937,0.121-0.838-0.37c0.601-3.001,2.73-3.759,4.375-3.875  C27.188,22.402,27.386,23.08,26.943,23.318z M61.138,35.716l6.869-11.559c0.676,0.193,1.378,0.333,2.114,0.333  c4.244,0,7.674-3.432,7.674-7.668c0-4.235-3.43-7.664-7.674-7.664c-4.236,0-7.665,3.428-7.665,7.664c0,2.103,0.848,4.003,2.219,5.39  l-6.847,11.527C59.004,34.271,60.114,34.937,61.138,35.716z M65.302,15.11c0.601-3.001,2.73-3.759,4.375-3.875  c0.502-0.036,0.7,0.642,0.256,0.88c-1.745,0.935-3.004,2.304-3.793,3.365C65.841,15.882,65.203,15.601,65.302,15.11z M84.828,45.393  c-3.298,0-6.091,2.096-7.175,5.017l-9.543-0.942c0,0.072,0.011,0.141,0.011,0.212c0,1.244-0.137,2.459-0.385,3.632l9.539,0.942  c0.577,3.66,3.728,6.466,7.552,6.466c4.235,0,7.663-3.428,7.663-7.663C92.49,48.825,89.062,45.393,84.828,45.393z M84.457,48.342  c-1.745,0.935-3.004,2.304-3.793,3.365c-0.299,0.402-0.937,0.121-0.838-0.37c0.601-3.001,2.73-3.759,4.375-3.875  C84.703,47.427,84.901,48.104,84.457,48.342z M58.493,75.538l-2.134-9.323c-1.204,0.419-2.457,0.72-3.764,0.87l2.137,9.324  c-2.45,1.282-4.141,3.815-4.141,6.773c0,4.235,3.428,7.661,7.672,7.661c4.235,0,7.663-3.428,7.663-7.661  C65.931,79.025,62.619,75.66,58.493,75.538z M57.44,78.943c-1.745,0.935-3.004,2.304-3.793,3.365  c-0.299,0.402-0.937,0.121-0.838-0.37c0.601-3.001,2.73-3.759,4.375-3.875C57.686,78.027,57.884,78.705,57.44,78.943z   M33.469,53.381l-11.879,3.98c-1.371-2.094-3.73-3.482-6.415-3.482c-4.236,0-7.665,3.43-7.665,7.665c0,4.24,3.428,7.67,7.665,7.67  c4.233,0,7.67-3.43,7.67-7.67c0-0.177-0.038-0.34-0.052-0.514l11.917-3.99C34.172,55.88,33.745,54.659,33.469,53.381z   M14.773,57.314c-1.745,0.935-3.004,2.304-3.793,3.365c-0.299,0.402-0.937,0.121-0.838-0.37c0.601-3.001,2.73-3.759,4.375-3.875  C15.019,56.398,15.217,57.076,14.773,57.314z"></path></g><g id="SvgjsG1838" featureKey="VGK2BT-0" transform="matrix(1.365950287546542,0,0,1.365950287546542,117.72052219366998,29.057372684162345)" fill="#a56cc1"><path d="M15.997 17.557 l1.162 -0.017422 l0.034786 2.3242 l-1.1621 0.017402 c-0.18088 0.002754 -0.38542 0.0058984 -0.6087 0.0058984 c-1.614 0 -4.2026 -0.16008 -5.8378 -1.7712 c-0.72798 -0.71726 -1.1865 -1.629 -1.3698 -2.72 l-4.2054 0 l-0.016602 4.4896 l-2.3246 -0.0086328 l0.037402 -10.127 l0 -1.1635 l0.0043164 0 l0 -0.0043164 l1.1612 0.0043164 l10.951 0 c1.4728 0 3.6638 0.90678 3.6638 3.4048 c0 2.4982 -2.0362 3.405 -3.4048 3.405 l-3.4826 0 c0.12543 0.4252 0.32842 0.77924 0.61734 1.064 c1.1685 1.151 3.608 1.1146 4.7804 1.0969 z M4.0314 13.0714 l10.041 -0.000019531 c0.10148 -0.0035352 0.40426 -0.041718 0.6538 -0.17971 c0.21608 -0.11955 0.43686 -0.32006 0.43686 -0.90076 c0 -0.46692 -0.15799 -0.71972 -0.56382 -0.90166 c-0.36882 -0.16531 -0.77152 -0.17865 -0.77532 -0.17865 l-9.7922 0 l0 2.1608 z M29.0154 8.011 l9.1766 12.19 l-2.9508 0 l-2.566 -3.3974 l-7.3197 0 l-2.5286 3.3974 l-2.9177 0 z M27.1162 14.4556 l3.7983 0 l-1.8992 -2.5322 z M49.799 8.662 l2.9056 0 l-9.017 12.023 l-9.018 -12.023 l2.9058 0 l6.1122 8.1492 z M71.047 10.9512 l-13.59 0.000019531 l0 2.1863 l9.0642 0.03375 l-0.0086328 2.3478 l-9.0556 -0.03375 l0 2.1782 l13.59 0 l0 2.3477 l-15.938 0 l0 -11.407 l15.938 0 l0 2.3476 z M87.979 8.593 l2.3476 0 l0 11.25 l-13.59 -7.098 l0 7.2556 l-2.3477 0 l0 -11.25 l13.59 7.098 l0 -7.2556 z M108.605 9.649 c0.91776 0.9099 0.9102 2.226 0.89856 4.2182 c-0.00091796 0.14832 -0.0016992 0.302 -0.0023438 0.46118 c-0.0044532 1.1823 -0.0075976 2.0366 -0.13172 2.757 c-0.10568 0.6142 -0.34974 1.4995 -1.2436 2.0954 c-1.1321 0.75466 -2.8232 0.77168 -6.5282 0.8087 c-0.57862 0.0057618 -1.1122 0.010078 -1.6046 0.010078 c-2.9354 0 -4.411 -0.15537 -5.3538 -1.0922 c-0.98198 -0.9757 -0.97648 -2.4126 -0.96838 -4.5876 c0.0090234 -2.4268 0.014512 -3.8916 1.2447 -4.801 c1.0614 -0.7845 2.6028 -0.80516 5.9798 -0.85054 l0.67396 -0.0092774 c4.2088 -0.060156 5.9508 -0.085136 7.0354 0.99024 z M107.17099999999999 13.854199999999999 c0.006543 -1.1448 0.013457 -2.3288 -0.20864 -2.5488 c-0.27556 -0.27322 -1.5123 -0.33638 -3.1584 -0.33638 c-0.67736 0 -1.4242 0.010723 -2.2018 0.021836 l-0.67606 0.0092774 c-2.4194 0.032442 -4.1674 0.055976 -4.625 0.39406 c-0.2888 0.21346 -0.2935 1.4744 -0.29898 2.9346 c-0.0050976 1.3559 -0.0099414 2.6366 0.28016 2.9248 c0.4554 0.45254 2.9138 0.42782 5.2914 0.40428 c2.7302 -0.027206 4.7028 -0.046954 5.258 -0.4171 c0.32686 -0.2179 0.33104 -1.3516 0.33692 -2.9208 c0.00052734 -0.16074 0.0014453 -0.316 0.0023632 -0.46588 z M127.333 10.8272 c0.95568 0.96942 1.4718 2.2114 1.4534 3.497 c-0.02289 1.5915 -0.78998 3.0436 -2.16 4.0892 c-1.4271 1.089 -3.4354 1.6646 -5.8082 1.6646 c-4.5288 0 -6.808 -0.0667 -6.8304 -0.067344 l-1.1387 -0.03414 l0 -11.373 l7.9691 0 c3.5728 0 5.5148 1.2092 6.5148 2.2236 z M120.81840000000001 17.7304 c3.8486 0 5.5962 -1.7276 5.6208 -3.4396 c0.009414 -0.66168 -0.25962 -1.2893 -0.77796 -1.8153 c-0.9689 -0.9829 -2.6888 -1.5241 -4.843 -1.5241 l-5.6214 0 l0 6.737 c1.09 0.018965 2.963 0.041992 5.6214 0.041992 z M148.08700000000002 10.9512 l-13.59 0.000019531 l0 2.1863 l9.0642 0.03375 l-0.0086328 2.3478 l-9.0556 -0.03375 l0 2.1782 l13.59 0 l0 2.3477 l-15.938 0 l0 -11.407 l15.938 0 l0 2.3476 z"></path></g>
			</g>
		</svg>
	