<?xml version="1.0" encoding="UTF-8"?>
<!DOCTYPE svg PUBLIC "-//W3C//DTD SVG 1.1//EN" "http://www.w3.org/Graphics/SVG/1.1/DTD/svg11.dtd">
<svg xmlns="http://www.w3.org/2000/svg" version="1.1" width="500px" height="500px" style="shape-rendering:geometricPrecision; text-rendering:geometricPrecision; image-rendering:optimizeQuality; fill-rule:evenodd; clip-rule:evenodd" xmlns:xlink="http://www.w3.org/1999/xlink">
<g><path style="opacity:0.04" fill="#141414" d="M 248.5,75.5 C 248.78,72.6118 247.447,71.1118 244.5,71C 240.141,70.4657 235.808,70.6324 231.5,71.5C 231.918,70.7784 232.584,70.2784 233.5,70C 238.857,69.043 244.024,69.543 249,71.5C 249.765,73.0657 249.598,74.3991 248.5,75.5 Z"/></g>
<g><path style="opacity:1" fill="#868686" d="M 192.5,84.5 C 194.96,89.8119 198.96,92.9785 204.5,94C 203.29,92.9609 202.29,91.7942 201.5,90.5C 204.822,89.7766 208.155,88.9433 211.5,88C 214.212,81.4765 218.879,76.9765 225.5,74.5C 227.819,74.0075 229.819,73.0075 231.5,71.5C 235.808,70.6324 240.141,70.4657 244.5,71C 247.447,71.1118 248.78,72.6118 248.5,75.5C 248.167,76.5 247.5,77.1667 246.5,77.5C 244.589,77.5743 243.422,78.5743 243,80.5C 241.734,84.3951 241.234,88.3951 241.5,92.5C 241.5,92.8333 241.5,93.1667 241.5,93.5C 240.362,96.3035 240.195,99.3035 241,102.5C 242.444,100.845 244.278,100.178 246.5,100.5C 246.082,101.222 245.416,101.722 244.5,102C 244.957,102.414 245.291,102.914 245.5,103.5C 243.793,107.495 242.793,111.662 242.5,116C 243.166,123.488 243.666,130.988 244,138.5C 244.87,137.892 245.37,137.059 245.5,136C 244.541,133.88 244.374,131.713 245,129.5C 245.374,131.491 246.207,133.158 247.5,134.5C 248.301,136.042 248.634,137.708 248.5,139.5C 248.362,144.414 249.028,149.081 250.5,153.5C 250.5,153.833 250.5,154.167 250.5,154.5C 250.334,159.511 250.501,164.511 251,169.5C 252.777,171.79 254.944,173.457 257.5,174.5C 258.167,174.5 258.5,174.833 258.5,175.5C 258.973,176.906 259.973,177.573 261.5,177.5C 264.205,178.853 266.872,180.186 269.5,181.5C 275.756,183.529 279.423,181.195 280.5,174.5C 280.335,170.818 280.501,167.152 281,163.5C 282.067,161.717 283.567,161.217 285.5,162C 288.777,164.766 291.443,167.933 293.5,171.5C 293.75,173.674 294.75,175.341 296.5,176.5C 298.601,179.797 299.935,183.463 300.5,187.5C 301.808,200.743 302.474,200.743 302.5,187.5C 302.328,186.508 302.662,185.842 303.5,185.5C 302.638,198.838 302.305,212.171 302.5,225.5C 290.676,212.173 279.009,198.673 267.5,185C 261.584,184.81 255.751,184.31 250,183.5C 248.301,184.406 246.467,184.739 244.5,184.5C 244.828,196.012 244.495,207.346 243.5,218.5C 242.791,217.596 241.791,217.263 240.5,217.5C 240.184,209.248 240.518,201.081 241.5,193C 240.726,190.595 240.226,188.095 240,185.5C 239.617,184.944 239.117,184.611 238.5,184.5C 231.137,184.831 223.803,184.497 216.5,183.5C 217.937,181.979 218.604,180.145 218.5,178C 217.345,168.912 215.179,160.078 212,151.5C 213.386,158.567 214.553,165.734 215.5,173C 215.333,175.167 215.167,177.333 215,179.5C 214.623,178.058 213.79,177.058 212.5,176.5C 211.5,175.833 210.5,175.167 209.5,174.5C 207.809,173.136 206.142,171.803 204.5,170.5C 198.65,167.281 195.65,169.281 195.5,176.5C 193.544,170.588 192.877,164.255 193.5,157.5C 194.653,156.687 194.653,155.687 193.5,154.5C 194.376,153.749 195.376,153.249 196.5,153C 195.24,151.887 194.073,151.72 193,152.5C 192.302,149.589 190.802,148.923 188.5,150.5C 187.167,150.5 185.833,150.5 184.5,150.5C 182.937,152.991 181.77,156.325 181,160.5C 179.927,156.916 179.26,153.25 179,149.5C 178.578,153.486 177.911,157.486 177,161.5C 176.71,159.081 175.876,157.747 174.5,157.5C 174.167,157.5 173.833,157.5 173.5,157.5C 173.714,155.856 173.38,154.356 172.5,153C 169.304,152.195 166.304,152.362 163.5,153.5C 162.064,154.429 160.731,155.595 159.5,157C 160.854,161.54 162.854,165.706 165.5,169.5C 165.833,170.833 166.167,172.167 166.5,173.5C 165.167,174.167 164.167,175.167 163.5,176.5C 161.656,178.279 160.99,180.612 161.5,183.5C 160.533,184.806 159.199,185.473 157.5,185.5C 157.66,183.801 157.494,182.134 157,180.5C 156.667,181.5 156.333,182.5 156,183.5C 155.581,182.328 154.915,181.328 154,180.5C 153.985,183.458 155.319,185.792 158,187.5C 158.526,194.071 158.026,200.571 156.5,207C 158.789,214.077 159.122,221.244 157.5,228.5C 156.12,228.962 155.453,229.962 155.5,231.5C 155.595,233.869 156.595,235.536 158.5,236.5C 158.196,237.15 157.863,237.817 157.5,238.5C 158.315,251.455 158.815,264.455 159,277.5C 160.032,279.027 161.199,280.36 162.5,281.5C 161.957,281.56 161.624,281.893 161.5,282.5C 162.028,284.336 162.694,286.003 163.5,287.5C 164.833,294.167 164.833,300.833 163.5,307.5C 163.666,301.824 163.499,296.157 163,290.5C 162.273,297.494 161.607,304.494 161,311.5C 160.363,304.237 159.197,297.07 157.5,290C 157.735,289.127 158.069,288.293 158.5,287.5C 157.479,287.458 156.479,287.458 155.5,287.5C 152.628,281.944 149.295,276.61 145.5,271.5C 144.242,269.313 143.242,266.98 142.5,264.5C 142.291,263.078 141.791,261.745 141,260.5C 140,262.5 139,264.5 138,266.5C 137.667,266.167 137.333,265.833 137,265.5C 136.953,261.853 137.786,258.353 139.5,255C 139.43,254.235 139.097,253.735 138.5,253.5C 138.5,251.833 138.5,250.167 138.5,248.5C 139.043,248.44 139.376,248.107 139.5,247.5C 138.197,245.032 136.697,242.699 135,240.5C 135.198,246.155 135.198,251.821 135,257.5C 134.333,255.5 133.667,253.5 133,251.5C 132.517,252.448 132.351,253.448 132.5,254.5C 132.167,254.5 131.833,254.5 131.5,254.5C 130.407,250.606 129.74,246.606 129.5,242.5C 129.545,237.211 126.878,234.545 121.5,234.5C 121.662,236.527 121.495,238.527 121,240.5C 120.617,239.944 120.117,239.611 119.5,239.5C 118.527,237.851 117.527,236.184 116.5,234.5C 116.573,232.973 115.906,231.973 114.5,231.5C 112.1,229.704 110.433,227.37 109.5,224.5C 110.787,213.991 111.454,203.324 111.5,192.5C 111.167,182.5 110.833,172.5 110.5,162.5C 109.702,162.957 109.369,163.624 109.5,164.5C 107.481,163.462 107.147,162.128 108.5,160.5C 108.56,161.043 108.893,161.376 109.5,161.5C 110.721,157.39 112.721,153.723 115.5,150.5C 115.333,150.167 115.167,149.833 115,149.5C 113.961,150.71 112.794,151.71 111.5,152.5C 111.193,142.418 111.526,132.418 112.5,122.5C 113.716,120.549 115.382,119.049 117.5,118C 125.219,114.472 132.886,110.972 140.5,107.5C 142.027,107.573 143.027,106.906 143.5,105.5C 146.833,104.167 149.167,101.833 150.5,98.5C 151.508,96.4561 152.508,94.4561 153.5,92.5C 155.106,91.6409 156.773,91.4742 158.5,92C 156.297,89.6278 153.963,87.4611 151.5,85.5C 148.185,83.7115 146.351,81.0448 146,77.5C 156.303,68.4295 167.47,67.2628 179.5,74C 184.311,76.9849 188.644,80.4849 192.5,84.5 Z M 194.5,115.5 C 194.66,117.153 195.326,118.486 196.5,119.5C 196.631,120.239 196.464,120.906 196,121.5C 194.961,120.29 193.794,119.29 192.5,118.5C 192.573,116.973 191.906,115.973 190.5,115.5C 190.351,114.448 190.517,113.448 191,112.5C 192.039,113.71 193.206,114.71 194.5,115.5 Z M 163.5,153.5 C 166.187,153.336 168.854,153.503 171.5,154C 172.085,155.302 172.751,156.469 173.5,157.5C 173.402,159.553 174.069,161.22 175.5,162.5C 175.402,164.553 176.069,166.22 177.5,167.5C 179.388,173.135 179.722,178.802 178.5,184.5C 173.5,184.5 168.5,184.5 163.5,184.5C 162.167,181.833 162.167,179.167 163.5,176.5C 165.5,176.5 166.5,175.5 166.5,173.5C 167.853,171.872 167.519,170.538 165.5,169.5C 162.854,165.706 160.854,161.54 159.5,157C 160.731,155.595 162.064,154.429 163.5,153.5 Z M 145.5,179.5 C 151.971,185.455 155.471,192.788 156,201.5C 154.497,196.481 151.997,192.148 148.5,188.5C 147.833,185.833 146.167,184.167 143.5,183.5C 143.027,182.094 142.027,181.427 140.5,181.5C 137.642,180.834 134.642,180.167 131.5,179.5C 132.436,178.026 133.77,177.026 135.5,176.5C 138.68,178.095 142.013,179.095 145.5,179.5 Z M 241.5,196.5 C 242.289,196.783 242.956,197.283 243.5,198C 242.184,198.528 241.517,198.028 241.5,196.5 Z M 242.5,203.5 C 243.809,207.351 243.809,211.351 242.5,215.5C 242.316,211.443 242.316,207.443 242.5,203.5 Z"/></g>
<g><path style="opacity:0.018" fill="#161517" d="M 231.5,71.5 C 229.819,73.0075 227.819,74.0075 225.5,74.5C 226.911,72.461 228.911,71.461 231.5,71.5 Z"/></g>
<g><path style="opacity:0.063" fill="#191819" d="M 246.5,77.5 C 243.746,82.2001 242.08,87.2001 241.5,92.5C 241.234,88.3951 241.734,84.3951 243,80.5C 243.422,78.5743 244.589,77.5743 246.5,77.5 Z"/></g>
<g><path style="opacity:0.196" fill="#201922" d="M 192.5,84.5 C 194.974,87.3105 197.974,89.3105 201.5,90.5C 202.29,91.7942 203.29,92.9609 204.5,94C 198.96,92.9785 194.96,89.8119 192.5,84.5 Z"/></g>
<g><path style="opacity:0.153" fill="#25222a" d="M 151.5,85.5 C 153.963,87.4611 156.297,89.6278 158.5,92C 156.773,91.4742 155.106,91.6409 153.5,92.5C 153.6,89.8915 152.933,87.5582 151.5,85.5 Z"/></g>
<g><path style="opacity:0.188" fill="#1a191c" d="M 376.5,91.5 C 375.577,90.6971 374.577,90.5304 373.5,91C 369.935,94.3955 366.602,97.8955 363.5,101.5C 365.763,96.2359 369.43,92.2359 374.5,89.5C 375.713,89.7472 376.38,90.4138 376.5,91.5 Z"/></g>
<g><path style="opacity:1" fill="#e2e2e4" d="M 160.5,92.5 C 163.583,95.3695 167.25,97.2029 171.5,98C 167.936,98.3163 164.603,97.4829 161.5,95.5C 160.614,94.675 160.281,93.675 160.5,92.5 Z"/></g>
<g><path style="opacity:0.998" fill="#858485" d="M 376.5,91.5 C 377.647,105.092 377.814,118.758 377,132.5C 376.727,135.393 375.893,138.06 374.5,140.5C 375.531,142.382 376.365,144.382 377,146.5C 377.667,153.167 377.667,159.833 377,166.5C 374.343,167.767 372.51,169.767 371.5,172.5C 371.98,178.191 372.646,183.858 373.5,189.5C 372.861,190.097 372.528,190.93 372.5,192C 373.438,199.834 373.938,207.668 374,215.5C 373.667,214.5 373.333,213.5 373,212.5C 372.79,214.058 372.29,215.391 371.5,216.5C 371.567,214.599 371.233,212.766 370.5,211C 371.794,210.894 372.461,209.894 372.5,208C 371.333,201.13 370.166,194.296 369,187.5C 368.517,188.448 368.351,189.448 368.5,190.5C 367.833,187.833 367.167,185.167 366.5,182.5C 365.566,181.432 365.232,180.099 365.5,178.5C 365.781,173.003 364.447,172.336 361.5,176.5C 360.766,177.708 360.433,179.041 360.5,180.5C 361.08,182.749 362.413,184.415 364.5,185.5C 365.597,188.686 366.93,191.686 368.5,194.5C 369.473,196.068 369.64,197.735 369,199.5C 368.667,198.5 368.333,197.5 368,196.5C 367.833,197.167 367.667,197.833 367.5,198.5C 368.331,200.473 368.498,202.473 368,204.5C 367.333,200.5 366.667,200.5 366,204.5C 365.64,202.392 364.973,200.392 364,198.5C 363.517,199.448 363.351,200.448 363.5,201.5C 361.713,196.593 359.38,191.927 356.5,187.5C 356.189,186.522 355.522,185.855 354.5,185.5C 352.673,187.487 351.673,189.821 351.5,192.5C 348.735,202.136 345.401,211.469 341.5,220.5C 339.532,226.193 338.532,232.193 338.5,238.5C 338.981,243.828 339.314,249.161 339.5,254.5C 340.873,254.657 342.207,254.49 343.5,254C 349.283,242.139 351.616,242.973 350.5,256.5C 350.768,258.099 350.434,259.432 349.5,260.5C 348.732,261.263 348.232,262.263 348,263.5C 347.501,267.152 347.335,270.818 347.5,274.5C 347.5,280.833 347.5,287.167 347.5,293.5C 346.514,289.03 346.181,284.363 346.5,279.5C 345.5,279.5 344.5,279.5 343.5,279.5C 343.167,282.167 342.833,284.833 342.5,287.5C 341.5,287.5 340.5,287.5 339.5,287.5C 338.808,292.783 338.808,298.117 339.5,303.5C 338.167,303.5 336.833,303.5 335.5,303.5C 335.666,308.844 335.499,314.177 335,319.5C 334.667,319.167 334.333,318.833 334,318.5C 333.5,297.169 333.333,275.836 333.5,254.5C 333.938,254.565 334.272,254.399 334.5,254C 333.422,253.326 332.755,252.326 332.5,251C 332.552,229.263 332.552,207.43 332.5,185.5C 324.833,185.5 317.167,185.5 309.5,185.5C 310.634,182.63 311.3,179.63 311.5,176.5C 311.565,173.572 312.232,170.905 313.5,168.5C 315.267,166.208 316.267,163.542 316.5,160.5C 317.931,159.22 318.598,157.553 318.5,155.5C 318.392,153.486 319.058,151.82 320.5,150.5C 322.104,149.713 322.771,148.38 322.5,146.5C 323.906,146.027 324.573,145.027 324.5,143.5C 325.01,140.326 326.677,137.992 329.5,136.5C 332.813,133.522 336.147,130.522 339.5,127.5C 340.816,130.028 341.983,130.028 343,127.5C 343.483,128.448 343.649,129.448 343.5,130.5C 343.5,130.833 343.5,131.167 343.5,131.5C 341.584,135.163 340.584,139.163 340.5,143.5C 343.367,143.631 345.033,142.297 345.5,139.5C 346.906,139.027 347.573,138.027 347.5,136.5C 348.89,135.101 349.89,133.434 350.5,131.5C 351.496,131.586 352.329,131.252 353,130.5C 353.494,128.866 353.66,127.199 353.5,125.5C 355.163,123.562 355.829,121.228 355.5,118.5C 357.037,112.185 359.703,106.518 363.5,101.5C 366.602,97.8955 369.935,94.3955 373.5,91C 374.577,90.5304 375.577,90.6971 376.5,91.5 Z M 365.5,178.5 C 365.232,180.099 365.566,181.432 366.5,182.5C 366.657,183.873 366.49,185.207 366,186.5C 365.617,185.944 365.117,185.611 364.5,185.5C 363.92,183.251 362.587,181.585 360.5,180.5C 360.433,179.041 360.766,177.708 361.5,176.5C 362.496,176.586 363.329,176.252 364,175.5C 364.232,176.737 364.732,177.737 365.5,178.5 Z"/></g>
<g><path style="opacity:0.025" fill="#0e0c12" d="M 241.5,93.5 C 241.5,95.5 241.5,97.5 241.5,99.5C 243.415,99.2155 245.081,99.5489 246.5,100.5C 244.278,100.178 242.444,100.845 241,102.5C 240.195,99.3035 240.362,96.3035 241.5,93.5 Z"/></g>
<g><path style="opacity:0.161" fill="#191319" d="M 233.5,95.5 C 234.803,98.3553 234.803,101.355 233.5,104.5C 231.954,103.788 230.954,102.622 230.5,101C 231.632,99.2355 232.632,97.4021 233.5,95.5 Z"/></g>
<g><path style="opacity:0.149" fill="#201f21" d="M 150.5,98.5 C 149.167,101.833 146.833,104.167 143.5,105.5C 145.5,102.833 147.833,100.5 150.5,98.5 Z"/></g>
<g><path style="opacity:0.176" fill="#171a1c" d="M 143.5,105.5 C 143.027,106.906 142.027,107.573 140.5,107.5C 140.973,106.094 141.973,105.427 143.5,105.5 Z"/></g>
<g><path style="opacity:0.078" fill="#201923" d="M 194.5,115.5 C 193.206,114.71 192.039,113.71 191,112.5C 190.517,113.448 190.351,114.448 190.5,115.5C 188.896,114.713 188.229,113.38 188.5,111.5C 191.878,110.891 193.878,112.224 194.5,115.5 Z"/></g>
<g><path style="opacity:0.137" fill="#281f2a" d="M 192.5,118.5 C 193.794,119.29 194.961,120.29 196,121.5C 196.464,120.906 196.631,120.239 196.5,119.5C 197.782,120.708 197.782,122.042 196.5,123.5C 194.389,122.395 193.055,120.729 192.5,118.5 Z"/></g>
<g><path style="opacity:0.141" fill="#202025" d="M 355.5,118.5 C 355.829,121.228 355.163,123.562 353.5,125.5C 353.41,122.848 354.076,120.515 355.5,118.5 Z"/></g>
<g><path style="opacity:0.263" fill="#2c292c" d="M 246.5,100.5 C 247.043,100.56 247.376,100.893 247.5,101.5C 245.465,106.14 244.132,110.973 243.5,116C 244.443,122.269 245.776,128.436 247.5,134.5C 246.207,133.158 245.374,131.491 245,129.5C 244.374,131.713 244.541,133.88 245.5,136C 245.37,137.059 244.87,137.892 244,138.5C 243.666,130.988 243.166,123.488 242.5,116C 242.793,111.662 243.793,107.495 245.5,103.5C 245.291,102.914 244.957,102.414 244.5,102C 245.416,101.722 246.082,101.222 246.5,100.5 Z"/></g>
<g><path style="opacity:0.149" fill="#272527" d="M 343.5,130.5 C 343.649,129.448 343.483,128.448 343,127.5C 341.983,130.028 340.816,130.028 339.5,127.5C 336.147,130.522 332.813,133.522 329.5,136.5C 331.933,132.232 335.266,128.732 339.5,126C 344.015,125.006 345.349,126.506 343.5,130.5 Z"/></g>
<g><path style="opacity:0.337" fill="#353039" d="M 353.5,125.5 C 353.66,127.199 353.494,128.866 353,130.5C 352.329,131.252 351.496,131.586 350.5,131.5C 351.799,129.588 352.799,127.588 353.5,125.5 Z"/></g>
<g><path style="opacity:0.137" fill="#28252b" d="M 350.5,131.5 C 349.89,133.434 348.89,135.101 347.5,136.5C 347.273,134.067 348.273,132.401 350.5,131.5 Z"/></g>
<g><path style="opacity:0.09" fill="#222229" d="M 347.5,136.5 C 347.573,138.027 346.906,139.027 345.5,139.5C 345.427,137.973 346.094,136.973 347.5,136.5 Z"/></g>
<g><path style="opacity:0.137" fill="#1f1d21" d="M 343.5,131.5 C 343.308,134.601 342.642,137.601 341.5,140.5C 341.833,140.833 342.167,141.167 342.5,141.5C 343.518,140.807 344.518,140.141 345.5,139.5C 345.033,142.297 343.367,143.631 340.5,143.5C 340.584,139.163 341.584,135.163 343.5,131.5 Z"/></g>
<g><path style="opacity:1" fill="#e5e3e6" d="M 350.5,136.5 C 351.497,136.47 352.164,136.97 352.5,138C 350.727,143.988 348.56,149.821 346,155.5C 347.33,149.176 348.83,142.843 350.5,136.5 Z"/></g>
<g><path style="opacity:0.082" fill="#121212" d="M 324.5,143.5 C 324.573,145.027 323.906,146.027 322.5,146.5C 322.427,144.973 323.094,143.973 324.5,143.5 Z"/></g>
<g><path style="opacity:0.22" fill="#3d3d3e" d="M 112.5,122.5 C 111.526,132.418 111.193,142.418 111.5,152.5C 110.492,154.544 109.492,156.544 108.5,158.5C 107.957,158.44 107.624,158.107 107.5,157.5C 109.813,154.374 110.813,150.874 110.5,147C 110.045,140.121 109.378,133.287 108.5,126.5C 109.409,124.625 110.743,123.292 112.5,122.5 Z"/></g>
<g><path style="opacity:0.329" fill="#29282a" d="M 248.5,139.5 C 249.972,143.919 250.638,148.586 250.5,153.5C 249.028,149.081 248.362,144.414 248.5,139.5 Z"/></g>
<g><path style="opacity:0.035" fill="#0a090a" d="M 243.5,144.5 C 246.213,150.114 247.046,156.114 246,162.5C 245.333,161.833 244.667,161.167 244,160.5C 243.501,155.177 243.334,149.844 243.5,144.5 Z"/></g>
<g><path style="opacity:0.067" fill="#120e12" d="M 322.5,146.5 C 322.771,148.38 322.104,149.713 320.5,150.5C 320.66,148.847 321.326,147.514 322.5,146.5 Z"/></g>
<g><path style="opacity:0.11" fill="#2e2a30" d="M 136.5,154.5 C 135.218,153.292 135.218,151.958 136.5,150.5C 139.769,153.354 140.269,156.687 138,160.5C 137.187,158.564 136.687,156.564 136.5,154.5 Z"/></g>
<g><path style="opacity:0.988" fill="#cccacd" d="M 157.5,138.5 C 158.311,142.835 158.978,147.335 159.5,152C 159.204,153.888 158.704,155.722 158,157.5C 156.225,151.2 156.058,144.867 157.5,138.5 Z"/></g>
<g><path style="opacity:0.013" fill="#08080c" d="M 163.5,153.5 C 166.304,152.362 169.304,152.195 172.5,153C 173.38,154.356 173.714,155.856 173.5,157.5C 172.751,156.469 172.085,155.302 171.5,154C 168.854,153.503 166.187,153.336 163.5,153.5 Z"/></g>
<g><path style="opacity:0.98" fill="#e8e6ea" d="M 108.5,160.5 C 108.5,159.833 108.5,159.167 108.5,158.5C 109.492,156.544 110.492,154.544 111.5,152.5C 112.794,151.71 113.961,150.71 115,149.5C 115.167,149.833 115.333,150.167 115.5,150.5C 112.721,153.723 110.721,157.39 109.5,161.5C 108.893,161.376 108.56,161.043 108.5,160.5 Z"/></g>
<g><path style="opacity:0.02" fill="#0b0b0d" d="M 318.5,155.5 C 318.598,157.553 317.931,159.22 316.5,160.5C 316.402,158.447 317.069,156.78 318.5,155.5 Z"/></g>
<g><path style="opacity:0.027" fill="#121212" d="M 173.5,157.5 C 173.833,157.5 174.167,157.5 174.5,157.5C 175.038,159.117 175.371,160.784 175.5,162.5C 174.069,161.22 173.402,159.553 173.5,157.5 Z"/></g>
<g><path style="opacity:1" fill="#9a9899" d="M 184.5,150.5 C 183.974,166.157 185.308,166.157 188.5,150.5C 190.802,148.923 192.302,149.589 193,152.5C 194.073,151.72 195.24,151.887 196.5,153C 195.376,153.249 194.376,153.749 193.5,154.5C 194.653,155.687 194.653,156.687 193.5,157.5C 192.303,158.261 191.47,159.928 191,162.5C 189.151,170.244 187.651,177.911 186.5,185.5C 178.146,185.668 169.813,185.334 161.5,184.5C 162.167,184.5 162.833,184.5 163.5,184.5C 168.5,184.5 173.5,184.5 178.5,184.5C 179.794,182.952 180.461,180.952 180.5,178.5C 180.867,174.347 179.867,170.68 177.5,167.5C 177.598,165.447 176.931,163.78 175.5,162.5C 175.371,160.784 175.038,159.117 174.5,157.5C 175.876,157.747 176.71,159.081 177,161.5C 177.911,157.486 178.578,153.486 179,149.5C 179.26,153.25 179.927,156.916 181,160.5C 181.77,156.325 182.937,152.991 184.5,150.5 Z"/></g>
<g><path style="opacity:0.061" fill="#100c14" d="M 184.5,150.5 C 185.833,150.5 187.167,150.5 188.5,150.5C 185.308,166.157 183.974,166.157 184.5,150.5 Z"/></g>
<g><path style="opacity:0.024" fill="#141215" d="M 316.5,160.5 C 316.267,163.542 315.267,166.208 313.5,168.5C 313.733,165.458 314.733,162.792 316.5,160.5 Z"/></g>
<g><path style="opacity:0.02" fill="#161616" d="M 175.5,162.5 C 176.931,163.78 177.598,165.447 177.5,167.5C 176.069,166.22 175.402,164.553 175.5,162.5 Z"/></g>
<g><path style="opacity:0.033" fill="#141414" d="M 193.5,157.5 C 192.877,164.255 193.544,170.588 195.5,176.5C 194.791,177.404 193.791,177.737 192.5,177.5C 192.666,173.486 192.499,169.486 192,165.5C 190.461,170.229 189.294,175.063 188.5,180C 188.008,189.863 188.008,199.697 188.5,209.5C 187.833,206.167 187.167,202.833 186.5,199.5C 186.5,194.833 186.5,190.167 186.5,185.5C 187.651,177.911 189.151,170.244 191,162.5C 191.47,159.928 192.303,158.261 193.5,157.5 Z"/></g>
<g><path style="opacity:0.082" fill="#161418" d="M 250.5,154.5 C 251.326,158.982 251.826,163.649 252,168.5C 254.04,170.37 255.873,172.37 257.5,174.5C 254.944,173.457 252.777,171.79 251,169.5C 250.501,164.511 250.334,159.511 250.5,154.5 Z"/></g>
<g><path style="opacity:0.047" fill="#1e1e22" d="M 165.5,169.5 C 167.519,170.538 167.853,171.872 166.5,173.5C 166.167,172.167 165.833,170.833 165.5,169.5 Z"/></g>
<g><path style="opacity:0.067" fill="#19171c" d="M 204.5,170.5 C 202.863,169.782 201.197,169.616 199.5,170C 198.067,172.173 196.734,174.34 195.5,176.5C 195.65,169.281 198.65,167.281 204.5,170.5 Z"/></g>
<g><path style="opacity:0.118" fill="#191517" d="M 293.5,171.5 C 295.25,172.659 296.25,174.326 296.5,176.5C 294.75,175.341 293.75,173.674 293.5,171.5 Z"/></g>
<g><path style="opacity:0.344" fill="#333233" d="M 109.5,224.5 C 109.829,204.581 109.829,184.581 109.5,164.5C 109.369,163.624 109.702,162.957 110.5,162.5C 110.833,172.5 111.167,182.5 111.5,192.5C 111.454,203.324 110.787,213.991 109.5,224.5 Z"/></g>
<g><path style="opacity:0.016" fill="#0f0f0f" d="M 166.5,173.5 C 166.5,175.5 165.5,176.5 163.5,176.5C 164.167,175.167 165.167,174.167 166.5,173.5 Z"/></g>
<g><path style="opacity:0.031" fill="#191919" d="M 258.5,175.5 C 260.027,175.427 261.027,176.094 261.5,177.5C 259.973,177.573 258.973,176.906 258.5,175.5 Z"/></g>
<g><path style="opacity:0.025" fill="#100c0f" d="M 365.5,178.5 C 364.732,177.737 364.232,176.737 364,175.5C 363.329,176.252 362.496,176.586 361.5,176.5C 364.447,172.336 365.781,173.003 365.5,178.5 Z"/></g>
<g><path style="opacity:0.027" fill="#2a2a2b" d="M 311.5,176.5 C 311.3,179.63 310.634,182.63 309.5,185.5C 307.5,185.5 305.5,185.5 303.5,185.5C 305.291,184.609 307.124,183.609 309,182.5C 309.566,180.277 310.4,178.277 311.5,176.5 Z"/></g>
<g><path style="opacity:0.036" fill="#0b0b0d" d="M 177.5,167.5 C 179.867,170.68 180.867,174.347 180.5,178.5C 180.461,180.952 179.794,182.952 178.5,184.5C 179.722,178.802 179.388,173.135 177.5,167.5 Z"/></g>
<g><path style="opacity:0.031" fill="#040405" d="M 163.5,176.5 C 162.167,179.167 162.167,181.833 163.5,184.5C 162.833,184.5 162.167,184.5 161.5,184.5C 161.5,184.167 161.5,183.833 161.5,183.5C 160.99,180.612 161.656,178.279 163.5,176.5 Z"/></g>
<g><path style="opacity:0.063" fill="#18181a" d="M 209.5,174.5 C 210.5,175.167 211.5,175.833 212.5,176.5C 213.75,179.006 214.416,181.673 214.5,184.5C 214.167,184.5 213.833,184.5 213.5,184.5C 212.708,180.922 211.375,177.588 209.5,174.5 Z"/></g>
<g><path style="opacity:0.063" fill="#100b13" d="M 145.5,179.5 C 142.013,179.095 138.68,178.095 135.5,176.5C 133.77,177.026 132.436,178.026 131.5,179.5C 134.642,180.167 137.642,180.834 140.5,181.5C 137.167,181.5 133.833,181.5 130.5,181.5C 129.959,177.705 131.625,175.705 135.5,175.5C 139.143,176.331 142.476,177.664 145.5,179.5 Z"/></g>
<g><path style="opacity:0.965" fill="#cdced0" d="M 238.5,184.5 C 230.684,185.492 222.684,185.826 214.5,185.5C 214.5,185.167 214.5,184.833 214.5,184.5C 214.416,181.673 213.75,179.006 212.5,176.5C 213.79,177.058 214.623,178.058 215,179.5C 215.167,177.333 215.333,175.167 215.5,173C 214.553,165.734 213.386,158.567 212,151.5C 215.179,160.078 217.345,168.912 218.5,178C 218.604,180.145 217.937,181.979 216.5,183.5C 223.803,184.497 231.137,184.831 238.5,184.5 Z"/></g>
<g><path style="opacity:0.038" fill="#131314" d="M 280.5,174.5 C 279.423,181.195 275.756,183.529 269.5,181.5C 275.005,181.921 278.672,179.587 280.5,174.5 Z"/></g>
<g><path style="opacity:0.008" fill="#242325" d="M 143.5,183.5 C 146.167,184.167 147.833,185.833 148.5,188.5C 146.5,187.167 144.833,185.5 143.5,183.5 Z"/></g>
<g><path style="opacity:0.102" fill="#201c1d" d="M 360.5,180.5 C 362.587,181.585 363.92,183.251 364.5,185.5C 362.413,184.415 361.08,182.749 360.5,180.5 Z"/></g>
<g><path style="opacity:0.043" fill="#171615" d="M 366.5,182.5 C 367.167,185.167 367.833,187.833 368.5,190.5C 368.5,191.833 368.5,193.167 368.5,194.5C 366.93,191.686 365.597,188.686 364.5,185.5C 365.117,185.611 365.617,185.944 366,186.5C 366.49,185.207 366.657,183.873 366.5,182.5 Z"/></g>
<g><path style="opacity:0.999" fill="#fcfcfc" d="M 161.5,183.5 C 161.5,183.833 161.5,184.167 161.5,184.5C 169.813,185.334 178.146,185.668 186.5,185.5C 186.5,190.167 186.5,194.833 186.5,199.5C 186.5,211.5 186.5,223.5 186.5,235.5C 188.564,235.687 190.564,236.187 192.5,237C 190.153,237.334 187.819,237.167 185.5,236.5C 185.172,241.875 185.505,247.208 186.5,252.5C 193.91,244.76 201.243,237.093 208.5,229.5C 209.833,227.833 211.167,226.167 212.5,224.5C 213.167,211.5 213.833,198.5 214.5,185.5C 222.684,185.826 230.684,185.492 238.5,184.5C 239.117,184.611 239.617,184.944 240,185.5C 240.226,188.095 240.726,190.595 241.5,193C 240.518,201.081 240.184,209.248 240.5,217.5C 241.791,217.263 242.791,217.596 243.5,218.5C 242.5,218.5 241.5,218.5 240.5,218.5C 240.596,227.65 240.596,236.65 240.5,245.5C 240.5,250.167 240.5,254.833 240.5,259.5C 240.667,274.837 240.5,290.17 240,305.5C 224.59,317.455 209.09,329.288 193.5,341C 191.613,341.78 189.946,341.613 188.5,340.5C 189.239,340.631 189.906,340.464 190.5,340C 185.206,339.182 185.206,338.682 190.5,338.5C 190.657,337.127 190.49,335.793 190,334.5C 188.893,335.712 188.393,335.379 188.5,333.5C 189.473,331.052 189.806,328.385 189.5,325.5C 190.396,320.145 190.729,314.812 190.5,309.5C 191.309,307.972 191.976,306.306 192.5,304.5C 194.117,303.411 194.95,301.744 195,299.5C 195.232,300.737 195.732,301.737 196.5,302.5C 199.155,301.503 201.155,299.836 202.5,297.5C 203.477,294.713 203.81,291.713 203.5,288.5C 204.165,290.698 204.832,293.031 205.5,295.5C 208.094,294.408 210.261,292.741 212,290.5C 212.832,281.149 212.665,271.816 211.5,262.5C 203.705,269.626 197.038,276.293 191.5,282.5C 190.167,283.167 189.167,284.167 188.5,285.5C 187.833,286.833 186.833,287.833 185.5,288.5C 184.167,289.167 183.167,290.167 182.5,291.5C 182.167,292.5 181.5,293.167 180.5,293.5C 179.518,294.141 178.518,294.807 177.5,295.5C 175.079,293.066 172.412,291.066 169.5,289.5C 167.906,286.236 165.573,283.569 162.5,281.5C 161.199,280.36 160.032,279.027 159,277.5C 158.815,264.455 158.315,251.455 157.5,238.5C 157.863,237.817 158.196,237.15 158.5,236.5C 158.721,233.721 158.388,231.054 157.5,228.5C 159.122,221.244 158.789,214.077 156.5,207C 158.026,200.571 158.526,194.071 158,187.5C 155.319,185.792 153.985,183.458 154,180.5C 154.915,181.328 155.581,182.328 156,183.5C 156.333,182.5 156.667,181.5 157,180.5C 157.494,182.134 157.66,183.801 157.5,185.5C 159.199,185.473 160.533,184.806 161.5,183.5 Z"/></g>
<g><path style="opacity:1" fill="#fcfcfc" d="M 303.5,185.5 C 305.5,185.5 307.5,185.5 309.5,185.5C 317.167,185.5 324.833,185.5 332.5,185.5C 332.552,207.43 332.552,229.263 332.5,251C 332.755,252.326 333.422,253.326 334.5,254C 334.272,254.399 333.938,254.565 333.5,254.5C 332.172,280.706 332.172,307.039 333.5,333.5C 332.635,334.583 331.635,334.749 330.5,334C 325.5,329.667 320.5,325.333 315.5,321C 312.305,320.819 309.305,320.319 306.5,319.5C 314.229,320.079 314.895,319.079 308.5,316.5C 307.866,314.228 306.532,312.561 304.5,311.5C 304.5,310.833 304.167,310.5 303.5,310.5C 303.632,307.43 303.299,304.43 302.5,301.5C 303.818,290.735 303.818,280.069 302.5,269.5C 297.167,263.331 292.001,256.998 287,250.5C 284.667,248.167 282.333,245.833 280,243.5C 278.076,247.017 276.409,250.684 275,254.5C 274.5,271.497 274.333,288.497 274.5,305.5C 269.5,305.5 264.5,305.5 259.5,305.5C 257.833,305.5 256.167,305.5 254.5,305.5C 253.833,305.5 253.167,305.5 252.5,305.5C 249.833,305.5 247.167,305.5 244.5,305.5C 244.5,299.833 244.5,294.167 244.5,288.5C 244.814,275.421 244.48,262.421 243.5,249.5C 244.818,239.265 244.818,228.931 243.5,218.5C 244.495,207.346 244.828,196.012 244.5,184.5C 246.467,184.739 248.301,184.406 250,183.5C 255.751,184.31 261.584,184.81 267.5,185C 279.009,198.673 290.676,212.173 302.5,225.5C 302.305,212.171 302.638,198.838 303.5,185.5 Z"/></g>
<g><path style="opacity:0.031" fill="#121012" d="M 356.5,187.5 C 355.761,187.369 355.094,187.536 354.5,188C 353.601,189.652 352.601,191.152 351.5,192.5C 351.673,189.821 352.673,187.487 354.5,185.5C 355.522,185.855 356.189,186.522 356.5,187.5 Z"/></g>
<g><path style="opacity:0.051" fill="#1d1a1d" d="M 371.5,172.5 C 372.983,176.95 373.983,181.617 374.5,186.5C 374.662,188.527 374.495,190.527 374,192.5C 373.517,191.552 373.351,190.552 373.5,189.5C 372.646,183.858 371.98,178.191 371.5,172.5 Z"/></g>
<g><path style="opacity:0.006" fill="#040406" d="M 212.5,187.5 C 212.5,199.833 212.5,212.167 212.5,224.5C 211.167,226.167 209.833,227.833 208.5,229.5C 206.952,229.179 206.285,228.179 206.5,226.5C 208.39,226.703 209.89,226.037 211,224.5C 211.169,211.993 211.669,199.66 212.5,187.5 Z"/></g>
<g><path style="opacity:0.319" fill="#828284" d="M 213.5,184.5 C 213.833,184.5 214.167,184.5 214.5,184.5C 214.5,184.833 214.5,185.167 214.5,185.5C 213.833,198.5 213.167,211.5 212.5,224.5C 212.5,212.167 212.5,199.833 212.5,187.5C 212.263,186.209 212.596,185.209 213.5,184.5 Z"/></g>
<g><path style="opacity:0.082" fill="#1f191e" d="M 300.5,187.5 C 301.167,187.5 301.833,187.5 302.5,187.5C 302.474,200.743 301.808,200.743 300.5,187.5 Z"/></g>
<g><path style="opacity:0.761" fill="#c0bec1" d="M 374.5,186.5 C 374.833,186.5 375.167,186.5 375.5,186.5C 375.667,200.171 375.5,213.837 375,227.5C 373.722,223.835 372.556,220.168 371.5,216.5C 372.29,215.391 372.79,214.058 373,212.5C 373.333,213.5 373.667,214.5 374,215.5C 373.938,207.668 373.438,199.834 372.5,192C 372.528,190.93 372.861,190.097 373.5,189.5C 373.351,190.552 373.517,191.552 374,192.5C 374.495,190.527 374.662,188.527 374.5,186.5 Z"/></g>
<g><path style="opacity:0.031" fill="#121113" d="M 200.5,201.5 C 198.086,203.34 196.419,205.673 195.5,208.5C 195.245,205.01 196.578,202.343 199.5,200.5C 200.107,200.624 200.44,200.957 200.5,201.5 Z"/></g>
<g><path style="opacity:1" fill="#b0adb2" d="M 371.5,216.5 C 369.783,213.155 369.116,209.489 369.5,205.5C 368.5,205.5 367.5,205.5 366.5,205.5C 366.649,206.552 366.483,207.552 366,208.5C 365.768,207.263 365.268,206.263 364.5,205.5C 363.566,204.432 363.232,203.099 363.5,201.5C 363.351,200.448 363.517,199.448 364,198.5C 364.973,200.392 365.64,202.392 366,204.5C 366.667,200.5 367.333,200.5 368,204.5C 368.498,202.473 368.331,200.473 367.5,198.5C 367.667,197.833 367.833,197.167 368,196.5C 368.333,197.5 368.667,198.5 369,199.5C 369.64,197.735 369.473,196.068 368.5,194.5C 368.5,193.167 368.5,191.833 368.5,190.5C 368.351,189.448 368.517,188.448 369,187.5C 370.166,194.296 371.333,201.13 372.5,208C 372.461,209.894 371.794,210.894 370.5,211C 371.233,212.766 371.567,214.599 371.5,216.5 Z"/></g>
<g><path style="opacity:0.976" fill="#6d6d71" d="M 375.5,186.5 C 376.495,198.989 376.829,211.656 376.5,224.5C 376.324,227.727 375.657,230.727 374.5,233.5C 373.674,230.515 372.341,227.849 370.5,225.5C 369.662,225.158 369.328,224.492 369.5,223.5C 369.598,221.447 368.931,219.78 367.5,218.5C 365.627,214.485 364.627,210.151 364.5,205.5C 365.268,206.263 365.768,207.263 366,208.5C 366.483,207.552 366.649,206.552 366.5,205.5C 367.5,205.5 368.5,205.5 369.5,205.5C 369.116,209.489 369.783,213.155 371.5,216.5C 372.556,220.168 373.722,223.835 375,227.5C 375.5,213.837 375.667,200.171 375.5,186.5 Z"/></g>
<g><path style="opacity:0.059" fill="#202023" d="M 367.5,218.5 C 368.931,219.78 369.598,221.447 369.5,223.5C 368.069,222.22 367.402,220.553 367.5,218.5 Z"/></g>
<g><path style="opacity:1" fill="#858586" d="M 186.5,199.5 C 187.167,202.833 187.833,206.167 188.5,209.5C 188.174,213.884 188.508,218.217 189.5,222.5C 190.107,222.376 190.44,222.043 190.5,221.5C 193.59,220.335 194.924,218.002 194.5,214.5C 194.205,212.265 194.539,210.265 195.5,208.5C 196.419,205.673 198.086,203.34 200.5,201.5C 201.117,201.611 201.617,201.944 202,202.5C 201.918,210.831 203.418,218.831 206.5,226.5C 206.285,228.179 206.952,229.179 208.5,229.5C 201.243,237.093 193.91,244.76 186.5,252.5C 185.505,247.208 185.172,241.875 185.5,236.5C 187.819,237.167 190.153,237.334 192.5,237C 190.564,236.187 188.564,235.687 186.5,235.5C 186.5,223.5 186.5,211.5 186.5,199.5 Z"/></g>
<g><path style="opacity:0.118" fill="#1b191e" d="M 194.5,214.5 C 194.924,218.002 193.59,220.335 190.5,221.5C 192.116,219.262 193.449,216.929 194.5,214.5 Z"/></g>
<g><path style="opacity:0.032" fill="#0a080c" d="M 188.5,209.5 C 189.167,213.5 189.833,217.5 190.5,221.5C 190.44,222.043 190.107,222.376 189.5,222.5C 188.508,218.217 188.174,213.884 188.5,209.5 Z"/></g>
<g><path style="opacity:0.031" fill="#131314" d="M 376.5,224.5 C 377.638,227.304 377.805,230.304 377,233.5C 376.023,234.774 375.189,234.774 374.5,233.5C 375.657,230.727 376.324,227.727 376.5,224.5 Z"/></g>
<g><path style="opacity:0.133" fill="#281f2a" d="M 157.5,228.5 C 158.388,231.054 158.721,233.721 158.5,236.5C 156.595,235.536 155.595,233.869 155.5,231.5C 155.453,229.962 156.12,228.962 157.5,228.5 Z"/></g>
<g><path style="opacity:0.027" fill="#0e0e0e" d="M 370.5,225.5 C 372.341,227.849 373.674,230.515 374.5,233.5C 372.127,231.421 370.794,228.754 370.5,225.5 Z"/></g>
<g><path style="opacity:0.008" fill="#131517" d="M 114.5,231.5 C 115.906,231.973 116.573,232.973 116.5,234.5C 115.094,234.027 114.427,233.027 114.5,231.5 Z"/></g>
<g><path style="opacity:0.289" fill="#818283" d="M 243.5,218.5 C 244.818,228.931 244.818,239.265 243.5,249.5C 242.5,248.167 241.5,246.833 240.5,245.5C 240.596,236.65 240.596,227.65 240.5,218.5C 241.5,218.5 242.5,218.5 243.5,218.5 Z"/></g>
<g><path style="opacity:0.047" fill="#0c0b12" d="M 129.5,242.5 C 128.86,239.276 126.86,237.276 123.5,236.5C 122.548,238.045 122.215,239.712 122.5,241.5C 120.821,241.715 119.821,241.048 119.5,239.5C 120.117,239.611 120.617,239.944 121,240.5C 121.495,238.527 121.662,236.527 121.5,234.5C 126.878,234.545 129.545,237.211 129.5,242.5 Z"/></g>
<g><path style="opacity:0.256" fill="#828181" d="M 274.5,237.5 C 276.352,238.52 277.685,240.02 278.5,242C 277.724,244.995 276.557,247.828 275,250.5C 274.501,246.179 274.334,241.846 274.5,237.5 Z"/></g>
<g><path style="opacity:0.078" fill="#222223" d="M 341.5,220.5 C 339.401,231.145 339.235,241.812 341,252.5C 341.333,252.833 341.667,253.167 342,253.5C 343.586,251.33 344.92,248.996 346,246.5C 348.671,243.586 350.837,243.919 352.5,247.5C 351.911,250.64 351.244,253.64 350.5,256.5C 351.616,242.973 349.283,242.139 343.5,254C 342.207,254.49 340.873,254.657 339.5,254.5C 339.314,249.161 338.981,243.828 338.5,238.5C 338.532,232.193 339.532,226.193 341.5,220.5 Z"/></g>
<g><path style="opacity:0.094" fill="#302e33" d="M 138.5,248.5 C 138.5,250.167 138.5,251.833 138.5,253.5C 138.291,254.922 137.791,256.255 137,257.5C 136.333,253.5 136.333,249.5 137,245.5C 137.513,246.527 138.013,247.527 138.5,248.5 Z"/></g>
<g><path style="opacity:0.02" fill="#131313" d="M 142.5,264.5 C 143.242,266.98 144.242,269.313 145.5,271.5C 143.549,270.284 142.049,268.618 141,266.5C 140.722,267.416 140.222,268.082 139.5,268.5C 139.491,266.692 139.991,265.025 141,263.5C 141.383,264.056 141.883,264.389 142.5,264.5 Z"/></g>
<g><path style="opacity:0.133" fill="#201f22" d="M 349.5,260.5 C 349.187,265.353 348.521,270.02 347.5,274.5C 347.335,270.818 347.501,267.152 348,263.5C 348.232,262.263 348.732,261.263 349.5,260.5 Z"/></g>
<g><path style="opacity:0.995" fill="#848388" d="M 137.5,277.5 C 137.5,278.167 137.5,278.833 137.5,279.5C 137.5,280.167 137.5,280.833 137.5,281.5C 137.167,281.5 136.833,281.5 136.5,281.5C 136.649,280.448 136.483,279.448 136,278.5C 135.206,282.55 134.206,286.55 133,290.5C 133.072,279.845 133.405,269.178 134,258.5C 134.333,262.167 134.667,265.833 135,269.5C 135.718,268.549 136.551,268.383 137.5,269C 136.183,271.937 136.183,274.77 137.5,277.5 Z"/></g>
<g><path style="opacity:0.025" fill="#060609" d="M 139.5,268.5 C 139.57,272.425 138.903,276.091 137.5,279.5C 137.5,278.833 137.5,278.167 137.5,277.5C 137.676,274.273 138.343,271.273 139.5,268.5 Z"/></g>
<g><path style="opacity:1" fill="#8a8b8c" d="M 203.5,288.5 C 203.5,287.833 203.167,287.5 202.5,287.5C 202.5,286.833 202.5,286.167 202.5,285.5C 201.91,284.234 201.41,282.901 201,281.5C 199.293,283.909 198.46,286.575 198.5,289.5C 198.443,290.609 198.11,291.609 197.5,292.5C 196.586,295.728 196.253,299.061 196.5,302.5C 195.732,301.737 195.232,300.737 195,299.5C 194.95,301.744 194.117,303.411 192.5,304.5C 192.167,303.167 191.833,301.833 191.5,300.5C 191.5,300.167 191.5,299.833 191.5,299.5C 191.5,293.833 191.5,288.167 191.5,282.5C 197.038,276.293 203.705,269.626 211.5,262.5C 212.665,271.816 212.832,281.149 212,290.5C 210.261,292.741 208.094,294.408 205.5,295.5C 204.832,293.031 204.165,290.698 203.5,288.5 Z"/></g>
<g><path style="opacity:0.759" fill="#afadb2" d="M 138.5,248.5 C 138.013,247.527 137.513,246.527 137,245.5C 136.333,249.5 136.333,253.5 137,257.5C 137.791,256.255 138.291,254.922 138.5,253.5C 139.097,253.735 139.43,254.235 139.5,255C 137.786,258.353 136.953,261.853 137,265.5C 137.333,265.833 137.667,266.167 138,266.5C 139,264.5 140,262.5 141,260.5C 141.791,261.745 142.291,263.078 142.5,264.5C 141.883,264.389 141.383,264.056 141,263.5C 139.991,265.025 139.491,266.692 139.5,268.5C 138.343,271.273 137.676,274.273 137.5,277.5C 136.183,274.77 136.183,271.937 137.5,269C 136.551,268.383 135.718,268.549 135,269.5C 134.667,265.833 134.333,262.167 134,258.5C 133.405,269.178 133.072,279.845 133,290.5C 134.206,286.55 135.206,282.55 136,278.5C 136.483,279.448 136.649,280.448 136.5,281.5C 135.243,287.335 135.243,293.168 136.5,299C 135.99,300.826 135.156,300.993 134,299.5C 133.027,297.608 132.36,295.608 132,293.5C 132.036,280.508 132.202,267.508 132.5,254.5C 132.351,253.448 132.517,252.448 133,251.5C 133.667,253.5 134.333,255.5 135,257.5C 135.198,251.821 135.198,246.155 135,240.5C 136.697,242.699 138.197,245.032 139.5,247.5C 139.376,248.107 139.043,248.44 138.5,248.5 Z"/></g>
<g><path style="opacity:0.073" fill="#141316" d="M 240.5,245.5 C 241.5,246.833 242.5,248.167 243.5,249.5C 244.48,262.421 244.814,275.421 244.5,288.5C 244.167,288.5 243.833,288.5 243.5,288.5C 242.506,279.014 242.173,269.348 242.5,259.5C 241.833,259.5 241.167,259.5 240.5,259.5C 240.5,254.833 240.5,250.167 240.5,245.5 Z M 242.5,259.5 C 241.884,256.422 241.717,253.422 242,250.5C 243.754,253.492 243.921,256.492 242.5,259.5 Z"/></g>
<g><path style="opacity:0.026" fill="#201e1f" d="M 162.5,281.5 C 165.573,283.569 167.906,286.236 169.5,289.5C 167.852,288.19 166.186,286.857 164.5,285.5C 163.702,285.957 163.369,286.624 163.5,287.5C 162.694,286.003 162.028,284.336 161.5,282.5C 161.624,281.893 161.957,281.56 162.5,281.5 Z"/></g>
<g><path style="opacity:0.027" fill="#171718" d="M 202.5,285.5 C 201.761,285.369 201.094,285.536 200.5,286C 199.915,287.302 199.249,288.469 198.5,289.5C 198.46,286.575 199.293,283.909 201,281.5C 201.41,282.901 201.91,284.234 202.5,285.5 Z"/></g>
<g><path style="opacity:0.024" fill="#1c1c1e" d="M 191.5,282.5 C 191.5,288.167 191.5,293.833 191.5,299.5C 189.445,295.577 189.112,291.411 190.5,287C 190.164,285.97 189.497,285.47 188.5,285.5C 189.167,284.167 190.167,283.167 191.5,282.5 Z"/></g>
<g><path style="opacity:0.999" fill="#848484" d="M 333.5,254.5 C 333.333,275.836 333.5,297.169 334,318.5C 334.333,318.833 334.667,319.167 335,319.5C 335.499,314.177 335.666,308.844 335.5,303.5C 336.833,303.5 338.167,303.5 339.5,303.5C 338.808,298.117 338.808,292.783 339.5,287.5C 340.5,287.5 341.5,287.5 342.5,287.5C 342.833,284.833 343.167,282.167 343.5,279.5C 344.5,279.5 345.5,279.5 346.5,279.5C 346.181,284.363 346.514,289.03 347.5,293.5C 348.623,296.86 349.957,300.193 351.5,303.5C 351.427,305.027 352.094,306.027 353.5,306.5C 356.667,309.498 360,312.331 363.5,315C 367.722,316.638 372.055,317.805 376.5,318.5C 377.833,333.5 377.833,348.5 376.5,363.5C 375.167,363.5 373.833,363.5 372.5,363.5C 372.343,364.873 372.51,366.207 373,367.5C 374.376,368.705 375.542,370.038 376.5,371.5C 376.666,379.507 376.5,387.507 376,395.5C 370.887,396.631 365.72,396.631 360.5,395.5C 356.756,395.072 353.756,393.405 351.5,390.5C 351.027,389.094 350.027,388.427 348.5,388.5C 346.761,385.757 344.427,383.757 341.5,382.5C 340.275,378.612 337.941,375.612 334.5,373.5C 333.596,372.791 333.263,371.791 333.5,370.5C 333.373,365.768 331.707,361.768 328.5,358.5C 324.532,350.684 319.532,343.518 313.5,337C 311.833,336 310.167,335 308.5,334C 303.93,332.991 299.43,331.824 295,330.5C 294.514,325.479 296.68,322.146 301.5,320.5C 303.292,320.634 304.958,320.301 306.5,319.5C 309.305,320.319 312.305,320.819 315.5,321C 320.5,325.333 325.5,329.667 330.5,334C 331.635,334.749 332.635,334.583 333.5,333.5C 332.172,307.039 332.172,280.706 333.5,254.5 Z"/></g>
<g><path style="opacity:0.373" fill="#3e3d3f" d="M 169.5,289.5 C 172.412,291.066 175.079,293.066 177.5,295.5C 178.518,294.807 179.518,294.141 180.5,293.5C 179.928,296.244 178.262,297.077 175.5,296C 173.294,293.963 171.294,291.797 169.5,289.5 Z"/></g>
<g><path style="opacity:1" fill="#bcbebf" d="M 302.5,269.5 C 303.818,280.069 303.818,290.735 302.5,301.5C 302.439,291.081 302.439,280.414 302.5,269.5 Z"/></g>
<g><path style="opacity:0.004" fill="#111111" d="M 185.5,288.5 C 185.5,290.5 184.5,291.5 182.5,291.5C 183.167,290.167 184.167,289.167 185.5,288.5 Z"/></g>
<g><path style="opacity:0.02" fill="#1b1c1c" d="M 202.5,287.5 C 203.167,287.5 203.5,287.833 203.5,288.5C 203.81,291.713 203.477,294.713 202.5,297.5C 202.357,293.857 202.357,290.523 202.5,287.5 Z"/></g>
<g><path style="opacity:0.031" fill="#202021" d="M 197.5,292.5 C 197.648,294.934 197.814,297.601 198,300.5C 199.271,299.117 200.771,298.117 202.5,297.5C 201.155,299.836 199.155,301.503 196.5,302.5C 196.253,299.061 196.586,295.728 197.5,292.5 Z"/></g>
<g><path style="opacity:0.042" fill="#141416" d="M 131.5,254.5 C 131.833,254.5 132.167,254.5 132.5,254.5C 132.202,267.508 132.036,280.508 132,293.5C 132.36,295.608 133.027,297.608 134,299.5C 135.156,300.993 135.99,300.826 136.5,299C 135.243,293.168 135.243,287.335 136.5,281.5C 136.833,281.5 137.167,281.5 137.5,281.5C 136.182,288.849 136.349,296.182 138,303.5C 139.045,304.373 139.878,305.373 140.5,306.5C 131.198,302.429 121.532,301.429 111.5,303.5C 112.263,302.732 113.263,302.232 114.5,302C 120.528,301.83 126.528,301.33 132.5,300.5C 131.028,295.119 130.361,289.619 130.5,284C 131.131,274.175 131.464,264.342 131.5,254.5 Z"/></g>
<g><path style="opacity:1" fill="#868686" d="M 240.5,259.5 C 241.167,259.5 241.833,259.5 242.5,259.5C 242.173,269.348 242.506,279.014 243.5,288.5C 243.829,301.344 243.495,314.011 242.5,326.5C 241.803,326.624 240.97,326.624 240,326.5C 238.086,327.676 238.252,328.676 240.5,329.5C 239.309,332.101 237.309,333.768 234.5,334.5C 235.167,335.833 235.833,337.167 236.5,338.5C 235.5,339.333 234.5,340.167 233.5,341C 233.833,341.333 234.167,341.667 234.5,342C 232.241,343.84 232.241,345.84 234.5,348C 234.081,351.425 232.414,354.091 229.5,356C 226.283,357.637 222.95,358.97 219.5,360C 227.64,359.6 233.973,356.1 238.5,349.5C 239.723,346.726 241.223,344.059 243,341.5C 243.167,342 243.333,342.5 243.5,343C 242.194,352.307 242.194,361.474 243.5,370.5C 242.33,377.175 239.33,382.841 234.5,387.5C 232.371,389.95 229.704,391.617 226.5,392.5C 223.759,392.707 221.426,393.707 219.5,395.5C 215.566,397.718 211.232,398.885 206.5,399C 193.119,399.903 179.786,399.57 166.5,398C 165.058,397.623 164.058,396.79 163.5,395.5C 164.496,395.414 165.329,395.748 166,396.5C 164.169,392.704 161.003,390.204 156.5,389C 161.978,388.643 167.312,387.643 172.5,386C 166.187,386.78 159.854,386.613 153.5,385.5C 152.287,385.747 151.62,386.414 151.5,387.5C 147.917,386.203 144.584,384.537 141.5,382.5C 141.027,381.094 140.027,380.427 138.5,380.5C 134.968,379.147 131.801,377.147 129,374.5C 126.488,370.139 123.988,365.806 121.5,361.5C 121.371,359.784 121.038,358.117 120.5,356.5C 121.152,355.551 121.486,354.385 121.5,353C 121.424,350.262 120.424,347.928 118.5,346C 119.725,340.339 119.225,340.172 117,345.5C 116.176,342.118 116.343,338.784 117.5,335.5C 118.192,336.025 118.692,336.692 119,337.5C 119.024,333.902 118.024,330.568 116,327.5C 115.219,328.729 114.719,330.062 114.5,331.5C 115.253,337.804 115.753,344.137 116,350.5C 116.667,353.167 117.333,353.167 118,350.5C 118.333,350.833 118.667,351.167 119,351.5C 119.18,353.488 119.014,355.488 118.5,357.5C 116.027,352.776 113.36,348.109 110.5,343.5C 110.35,338.865 110.683,334.198 111.5,329.5C 111.157,320.727 111.157,312.06 111.5,303.5C 121.532,301.429 131.198,302.429 140.5,306.5C 145.875,309.357 150.209,313.357 153.5,318.5C 156.885,325.246 158.552,324.58 158.5,316.5C 159.29,315.391 159.79,314.058 160,312.5C 160.181,315.695 160.681,318.695 161.5,321.5C 160.964,324.698 161.631,327.365 163.5,329.5C 164.833,330.167 165.833,331.167 166.5,332.5C 167.911,334.914 169.911,336.581 172.5,337.5C 173.71,337.932 174.71,338.599 175.5,339.5C 179.613,341.658 183.946,341.992 188.5,340.5C 189.946,341.613 191.613,341.78 193.5,341C 209.09,329.288 224.59,317.455 240,305.5C 240.5,290.17 240.667,274.837 240.5,259.5 Z M 148.5,346.5 C 148.833,347.167 149.167,347.833 149.5,348.5C 148.833,348.5 148.167,348.5 147.5,348.5C 142.101,344.63 142.435,343.964 148.5,346.5 Z M 153.5,352.5 C 154.627,353.122 155.627,353.955 156.5,355C 154.511,355.519 153.511,354.686 153.5,352.5 Z M 150.5,349.5 C 151.167,349.5 151.833,349.5 152.5,349.5C 152.5,350.167 152.5,350.833 152.5,351.5C 151.5,351.167 150.833,350.5 150.5,349.5 Z"/></g>
<g><path style="opacity:0.022" fill="#232324" d="M 191.5,300.5 C 191.833,301.833 192.167,303.167 192.5,304.5C 191.976,306.306 191.309,307.972 190.5,309.5C 188.265,309.795 186.265,309.461 184.5,308.5C 186.467,308.739 188.301,308.406 190,307.5C 191.225,305.118 191.725,302.785 191.5,300.5 Z"/></g>
<g><path style="opacity:0.157" fill="#242024" d="M 351.5,303.5 C 352.906,303.973 353.573,304.973 353.5,306.5C 352.094,306.027 351.427,305.027 351.5,303.5 Z"/></g>
<g><path style="opacity:0.129" fill="#1d1c1f" d="M 184.5,308.5 C 182.143,308.337 179.81,308.503 177.5,309C 176.419,310.711 176.752,312.211 178.5,313.5C 176.436,313.238 175.103,312.071 174.5,310C 177.576,307.367 180.909,306.867 184.5,308.5 Z"/></g>
<g><path style="opacity:0.388" fill="#323132" d="M 111.5,303.5 C 111.157,312.06 111.157,320.727 111.5,329.5C 110.072,326.587 109.072,323.421 108.5,320C 108.764,314.104 109.764,308.604 111.5,303.5 Z"/></g>
<g><path style="opacity:0.816" fill="#b6b4b7" d="M 163.5,307.5 C 163.5,307.833 163.5,308.167 163.5,308.5C 162.105,312.591 161.438,316.924 161.5,321.5C 160.681,318.695 160.181,315.695 160,312.5C 159.79,314.058 159.29,315.391 158.5,316.5C 158.666,310.491 158.499,304.491 158,298.5C 157.689,294.91 156.856,291.577 155.5,288.5C 155.5,288.167 155.5,287.833 155.5,287.5C 156.479,287.458 157.479,287.458 158.5,287.5C 158.069,288.293 157.735,289.127 157.5,290C 159.197,297.07 160.363,304.237 161,311.5C 161.607,304.494 162.273,297.494 163,290.5C 163.499,296.157 163.666,301.824 163.5,307.5 Z"/></g>
<g><path style="opacity:0.298" fill="#2c2c2e" d="M 178.5,313.5 C 181.833,314.833 184.167,317.167 185.5,320.5C 182.833,318.5 180.5,316.167 178.5,313.5 Z"/></g>
<g><path style="opacity:0.996" fill="#909091" d="M 184.5,308.5 C 186.265,309.461 188.265,309.795 190.5,309.5C 190.729,314.812 190.396,320.145 189.5,325.5C 188.833,324.833 188.167,324.167 187.5,323.5C 187.573,321.973 186.906,320.973 185.5,320.5C 184.167,317.167 181.833,314.833 178.5,313.5C 176.752,312.211 176.419,310.711 177.5,309C 179.81,308.503 182.143,308.337 184.5,308.5 Z"/></g>
<g><path style="opacity:0.024" fill="#111115" d="M 304.5,311.5 C 306.532,312.561 307.866,314.228 308.5,316.5C 314.895,319.079 314.229,320.079 306.5,319.5C 304.958,320.301 303.292,320.634 301.5,320.5C 303.512,319.476 305.178,317.976 306.5,316C 305.418,314.67 304.751,313.17 304.5,311.5 Z"/></g>
<g><path style="opacity:1" fill="#868687" d="M 302.5,269.5 C 302.439,280.414 302.439,291.081 302.5,301.5C 303.299,304.43 303.632,307.43 303.5,310.5C 301.97,304.254 299.637,298.254 296.5,292.5C 294.44,284.567 292.44,284.567 290.5,292.5C 276.574,312.627 267.074,335.294 262,360.5C 260.209,364.439 257.709,367.772 254.5,370.5C 253.167,371.167 252.167,372.167 251.5,373.5C 248.06,372.551 246.726,370.218 247.5,366.5C 248.537,362.796 248.537,359.129 247.5,355.5C 248.959,352.284 249.626,349.117 249.5,346C 247.925,343.104 246.259,340.271 244.5,337.5C 245.155,334.044 246.489,330.877 248.5,328C 246.688,325.209 246.688,322.209 248.5,319C 248.194,315.342 247.861,312.008 247.5,309C 248.126,308.25 248.626,307.416 249,306.5C 250.313,307.287 251.48,306.954 252.5,305.5C 253.167,305.5 253.833,305.5 254.5,305.5C 253.89,306.391 253.557,307.391 253.5,308.5C 251.837,310.438 251.171,312.772 251.5,315.5C 252.791,315.737 253.791,315.404 254.5,314.5C 257.931,312.652 259.597,309.652 259.5,305.5C 264.5,305.5 269.5,305.5 274.5,305.5C 274.333,288.497 274.5,271.497 275,254.5C 276.409,250.684 278.076,247.017 280,243.5C 282.333,245.833 284.667,248.167 287,250.5C 292.001,256.998 297.167,263.331 302.5,269.5 Z M 254.5,314.5 C 253.503,314.53 252.836,314.03 252.5,313C 253.148,311.56 253.481,310.06 253.5,308.5C 255.06,306.365 256.727,306.198 258.5,308C 257.281,310.278 255.948,312.445 254.5,314.5 Z"/></g>
<g><path style="opacity:0.078" fill="#110d12" d="M 253.5,308.5 C 253.481,310.06 253.148,311.56 252.5,313C 252.836,314.03 253.503,314.53 254.5,314.5C 253.791,315.404 252.791,315.737 251.5,315.5C 251.171,312.772 251.837,310.438 253.5,308.5 Z"/></g>
<g><path style="opacity:0.09" fill="#161517" d="M 254.5,305.5 C 256.167,305.5 257.833,305.5 259.5,305.5C 259.597,309.652 257.931,312.652 254.5,314.5C 255.948,312.445 257.281,310.278 258.5,308C 256.727,306.198 255.06,306.365 253.5,308.5C 253.557,307.391 253.89,306.391 254.5,305.5 Z"/></g>
<g><path style="opacity:0.012" fill="#141414" d="M 296.5,292.5 C 295.288,291.77 294.288,290.77 293.5,289.5C 292.265,290.34 291.265,291.34 290.5,292.5C 292.44,284.567 294.44,284.567 296.5,292.5 Z"/></g>
<g><path style="opacity:0.055" fill="#1d1a1c" d="M 155.5,288.5 C 156.856,291.577 157.689,294.91 158,298.5C 158.499,304.491 158.666,310.491 158.5,316.5C 158.552,324.58 156.885,325.246 153.5,318.5C 154.482,319.141 155.482,319.807 156.5,320.5C 157.991,309.823 157.324,299.323 154.5,289C 154.728,288.601 155.062,288.435 155.5,288.5 Z"/></g>
<g><path style="opacity:0.047" fill="#120f17" d="M 163.5,308.5 C 162.524,315.537 162.524,322.537 163.5,329.5C 161.631,327.365 160.964,324.698 161.5,321.5C 161.438,316.924 162.105,312.591 163.5,308.5 Z"/></g>
<g><path style="opacity:0.047" fill="#1c1c1c" d="M 185.5,320.5 C 186.906,320.973 187.573,321.973 187.5,323.5C 186.094,323.027 185.427,322.027 185.5,320.5 Z"/></g>
<g><path style="opacity:0.024" fill="#121215" d="M 187.5,323.5 C 188.167,324.167 188.833,324.833 189.5,325.5C 189.806,328.385 189.473,331.052 188.5,333.5C 188.54,330.119 188.207,326.786 187.5,323.5 Z"/></g>
<g><path style="opacity:0.008" fill="#212021" d="M 166.5,332.5 C 169.089,333.419 171.089,335.086 172.5,337.5C 169.911,336.581 167.911,334.914 166.5,332.5 Z"/></g>
<g><path style="opacity:1" fill="#737273" d="M 243.5,288.5 C 243.833,288.5 244.167,288.5 244.5,288.5C 244.5,294.167 244.5,299.833 244.5,305.5C 247.167,305.5 249.833,305.5 252.5,305.5C 251.48,306.954 250.313,307.287 249,306.5C 248.626,307.416 248.126,308.25 247.5,309C 247.861,312.008 248.194,315.342 248.5,319C 246.688,322.209 246.688,325.209 248.5,328C 246.489,330.877 245.155,334.044 244.5,337.5C 246.259,340.271 247.925,343.104 249.5,346C 249.626,349.117 248.959,352.284 247.5,355.5C 248.537,359.129 248.537,362.796 247.5,366.5C 246.726,370.218 248.06,372.551 251.5,373.5C 251.5,374.833 250.833,375.5 249.5,375.5C 247.833,376.833 246.167,378.167 244.5,379.5C 244.082,378.778 243.416,378.278 242.5,378C 244.044,377.71 245.377,377.044 246.5,376C 245.026,367.95 244.193,359.784 244,351.5C 243.5,357.825 243.334,364.158 243.5,370.5C 242.194,361.474 242.194,352.307 243.5,343C 243.333,342.5 243.167,342 243,341.5C 241.223,344.059 239.723,346.726 238.5,349.5C 237.542,349.953 236.708,350.619 236,351.5C 236.176,347.901 236.509,344.234 237,340.5C 239.124,335.924 240.957,331.257 242.5,326.5C 243.495,314.011 243.829,301.344 243.5,288.5 Z"/></g>
<g><path style="opacity:1" fill="#adacad" d="M 242.5,326.5 C 240.957,331.257 239.124,335.924 237,340.5C 236.509,344.234 236.176,347.901 236,351.5C 236.708,350.619 237.542,349.953 238.5,349.5C 233.973,356.1 227.64,359.6 219.5,360C 222.95,358.97 226.283,357.637 229.5,356C 232.414,354.091 234.081,351.425 234.5,348C 232.241,345.84 232.241,343.84 234.5,342C 234.167,341.667 233.833,341.333 233.5,341C 234.5,340.167 235.5,339.333 236.5,338.5C 235.833,337.167 235.167,335.833 234.5,334.5C 237.309,333.768 239.309,332.101 240.5,329.5C 238.252,328.676 238.086,327.676 240,326.5C 240.97,326.624 241.803,326.624 242.5,326.5 Z"/></g>
<g><path style="opacity:1" fill="#555158" d="M 188.5,333.5 C 188.393,335.379 188.893,335.712 190,334.5C 190.49,335.793 190.657,337.127 190.5,338.5C 185.206,338.682 185.206,339.182 190.5,340C 189.906,340.464 189.239,340.631 188.5,340.5C 183.946,341.992 179.613,341.658 175.5,339.5C 180.422,338.874 184.755,336.874 188.5,333.5 Z"/></g>
<g><path style="opacity:1" fill="#afaeb4" d="M 120.5,356.5 C 120.565,356.062 120.399,355.728 120,355.5C 119.722,356.416 119.222,357.082 118.5,357.5C 119.014,355.488 119.18,353.488 119,351.5C 118.667,351.167 118.333,350.833 118,350.5C 117.333,353.167 116.667,353.167 116,350.5C 115.753,344.137 115.253,337.804 114.5,331.5C 114.719,330.062 115.219,328.729 116,327.5C 118.024,330.568 119.024,333.902 119,337.5C 118.692,336.692 118.192,336.025 117.5,335.5C 116.343,338.784 116.176,342.118 117,345.5C 119.225,340.172 119.725,340.339 118.5,346C 120.424,347.928 121.424,350.262 121.5,353C 121.486,354.385 121.152,355.551 120.5,356.5 Z"/></g>
<g><path style="opacity:0.098" fill="#15101b" d="M 148.5,346.5 C 142.435,343.964 142.101,344.63 147.5,348.5C 144.684,348.456 142.351,347.456 140.5,345.5C 143.412,342.885 146.079,343.218 148.5,346.5 Z"/></g>
<g><path style="opacity:0.055" fill="#0f0f14" d="M 148.5,346.5 C 150.404,346.738 151.738,347.738 152.5,349.5C 151.833,349.5 151.167,349.5 150.5,349.5C 150.5,348.833 150.167,348.5 149.5,348.5C 149.167,347.833 148.833,347.167 148.5,346.5 Z"/></g>
<g><path style="opacity:0.071" fill="#18131b" d="M 147.5,348.5 C 148.167,348.5 148.833,348.5 149.5,348.5C 150.167,348.5 150.5,348.833 150.5,349.5C 150.833,350.5 151.5,351.167 152.5,351.5C 152.5,350.833 152.5,350.167 152.5,349.5C 155.833,351.159 157.5,353.825 157.5,357.5C 156.022,357.762 154.689,357.429 153.5,356.5C 151.86,353.532 149.86,350.865 147.5,348.5 Z M 153.5,352.5 C 153.511,354.686 154.511,355.519 156.5,355C 155.627,353.955 154.627,353.122 153.5,352.5 Z M 150.5,349.5 C 151.167,349.5 151.833,349.5 152.5,349.5C 152.5,350.167 152.5,350.833 152.5,351.5C 151.5,351.167 150.833,350.5 150.5,349.5 Z"/></g>
<g><path style="opacity:0.237" fill="#2d292a" d="M 252.5,352.5 C 253.819,354.605 253.486,356.605 251.5,358.5C 250.911,356.519 251.245,354.519 252.5,352.5 Z"/></g>
<g><path style="opacity:0.09" fill="#201e21" d="M 120.5,356.5 C 121.038,358.117 121.371,359.784 121.5,361.5C 120.512,360.205 119.512,358.872 118.5,357.5C 119.222,357.082 119.722,356.416 120,355.5C 120.399,355.728 120.565,356.062 120.5,356.5 Z"/></g>
<g><path style="opacity:0.034" fill="#141414" d="M 328.5,358.5 C 331.707,361.768 333.373,365.768 333.5,370.5C 331.853,366.576 330.186,362.576 328.5,358.5 Z"/></g>
<g><path style="opacity:0.012" fill="#181718" d="M 254.5,370.5 C 254.5,372.5 253.5,373.5 251.5,373.5C 252.167,372.167 253.167,371.167 254.5,370.5 Z"/></g>
<g><path style="opacity:0.949" fill="#535251" d="M 244.5,379.5 C 244.5,379.833 244.5,380.167 244.5,380.5C 241.149,382.859 237.815,385.192 234.5,387.5C 239.33,382.841 242.33,377.175 243.5,370.5C 243.334,364.158 243.5,357.825 244,351.5C 244.193,359.784 245.026,367.95 246.5,376C 245.377,377.044 244.044,377.71 242.5,378C 243.416,378.278 244.082,378.778 244.5,379.5 Z"/></g>
<g><path style="opacity:0.275" fill="#36353a" d="M 334.5,373.5 C 337.941,375.612 340.275,378.612 341.5,382.5C 338.791,379.792 336.458,376.792 334.5,373.5 Z"/></g>
<g><path style="opacity:0.008" fill="#121015" d="M 249.5,375.5 C 248.627,377.886 247.127,379.886 245,381.5C 244.601,381.272 244.435,380.938 244.5,380.5C 244.5,380.167 244.5,379.833 244.5,379.5C 246.167,378.167 247.833,376.833 249.5,375.5 Z"/></g>
<g><path style="opacity:0.055" fill="#1b1c1c" d="M 138.5,380.5 C 140.027,380.427 141.027,381.094 141.5,382.5C 139.973,382.573 138.973,381.906 138.5,380.5 Z"/></g>
<g><path style="opacity:0.2" fill="#2d2d31" d="M 341.5,382.5 C 344.427,383.757 346.761,385.757 348.5,388.5C 345.573,387.243 343.239,385.243 341.5,382.5 Z"/></g>
<g><path style="opacity:0.204" fill="#232125" d="M 348.5,388.5 C 350.027,388.427 351.027,389.094 351.5,390.5C 349.973,390.573 348.973,389.906 348.5,388.5 Z"/></g>
<g><path style="opacity:0.973" fill="#ababac" d="M 163.5,395.5 C 163.027,394.094 162.027,393.427 160.5,393.5C 160.027,392.094 159.027,391.427 157.5,391.5C 154.802,391.155 152.802,389.822 151.5,387.5C 151.62,386.414 152.287,385.747 153.5,385.5C 159.854,386.613 166.187,386.78 172.5,386C 167.312,387.643 161.978,388.643 156.5,389C 161.003,390.204 164.169,392.704 166,396.5C 165.329,395.748 164.496,395.414 163.5,395.5 Z"/></g>
<g><path style="opacity:0.039" fill="#14141c" d="M 157.5,391.5 C 159.027,391.427 160.027,392.094 160.5,393.5C 158.973,393.573 157.973,392.906 157.5,391.5 Z"/></g>
<g><path style="opacity:0.082" fill="#111116" d="M 160.5,393.5 C 162.027,393.427 163.027,394.094 163.5,395.5C 161.973,395.573 160.973,394.906 160.5,393.5 Z"/></g>
<g><path style="opacity:0.067" fill="#191717" d="M 226.5,392.5 C 224.574,394.293 222.241,395.293 219.5,395.5C 221.426,393.707 223.759,392.707 226.5,392.5 Z"/></g>
<g><path style="opacity:0.027" fill="#161515" d="M 376.5,371.5 C 377.657,379.656 377.823,387.99 377,396.5C 374.757,397.137 372.424,397.47 370,397.5C 366.523,397.672 363.356,397.006 360.5,395.5C 365.72,396.631 370.887,396.631 376,395.5C 376.5,387.507 376.666,379.507 376.5,371.5 Z"/></g>
</svg>
